<svg xmlns="http://www.w3.org/2000/svg" viewBox="0 0 1296 1024">
    <path
        d="M919.674688 272.371008C860.301264 114.602384 681.577376 0 470.322576 0 210.570592 0 0 173.259968 0 386.986992 0 504.45832 63.612528 609.70472 164.04024 680.677008L97.373616 827.717696 275.38408 739.271872C334.774896 761.557408 400.786464 773.973968 470.322576 773.973968 485.96576 773.973968 501.43056 773.345584 516.681744 772.117808 493.610048 728.00832 480.774192 679.107168 480.774192 627.546464 480.774192 430.27608 668.66736 271.9368 898.838704 271.9368 905.824336 271.9368 912.771008 272.082656 919.674688 272.371008L919.674688 272.371008 919.674688 272.371008ZM271.741936 235.32992C271.741936 209.336096 292.617904 188.263936 318.774192 188.263936 344.749392 188.263936 365.806448 209.15488 365.806448 235.32992 365.806448 261.323744 344.93048 282.395904 318.774192 282.395904 292.798992 282.395904 271.741936 261.504976 271.741936 235.32992L271.741936 235.32992 271.741936 235.32992ZM564.387104 235.32992C564.387104 209.336096 585.263056 188.263936 611.41936 188.263936 637.39456 188.263936 658.451616 209.15488 658.451616 235.32992 658.451616 261.323744 637.575648 282.395904 611.41936 282.395904 585.44416 282.395904 564.387104 261.504976 564.387104 235.32992L564.387104 235.32992ZM1028.70016 943.937488C988.008016 955.796576 944.315984 962.23792 898.838704 962.23792 679.492592 962.23792 501.677424 812.391456 501.677424 627.546464 501.677424 442.701488 679.492592 292.855024 898.838704 292.855024 1118.184832 292.855024 1296 442.701488 1296 627.546464 1296 738.522352 1231.906976 836.88312 1133.213232 897.775344L1182.756336 1024 1028.70016 943.937488 1028.70016 943.937488 1028.70016 943.937488ZM752.516128 543.8736C775.6052 543.8736 794.322576 525.1428 794.322576 502.037168 794.322576 478.931552 775.6052 460.200736 752.516128 460.200736 729.427056 460.200736 710.70968 478.931552 710.70968 502.037168 710.70968 525.1428 729.427056 543.8736 752.516128 543.8736L752.516128 543.8736ZM1024.258064 543.8736C1047.347136 543.8736 1066.064512 525.1428 1066.064512 502.037168 1066.064512 478.931552 1047.347136 460.200736 1024.258064 460.200736 1001.168992 460.200736 982.451616 478.931552 982.451616 502.037168 982.451616 525.1428 1001.168992 543.8736 1024.258064 543.8736L1024.258064 543.8736Z"
        p-id="2699"></path>
</svg>
