<svg
    xmlns="http://www.w3.org/2000/svg"
    viewBox="0 0 418 48">
    <path
        d="M24,0 L6.6633574,44.1877256 L48,48 L0,48 L24,0 Z M125.439453,10.1949219 C127.678385,10.1949219 129.76888,10.6526042 131.710938,11.5679687 C133.566406,12.4833333 135.390951,13.9677083 137.18457,16.0210937 L137.18457,16.0210937 L134.104492,18.9712891 L133.867755,18.6635493 C131.562754,15.7391518 128.77806,14.2769531 125.513672,14.2769531 C122.483073,14.2769531 119.941081,15.3222005 117.887695,17.4126953 C115.83431,19.4660807 114.807617,22.0389974 114.807617,25.1314453 C114.807617,28.3228516 115.951823,30.9514323 118.240234,33.0171875 C120.380208,34.9345052 122.699544,35.8931641 125.198242,35.8931641 C127.325846,35.8931641 129.236979,35.1757161 130.931641,33.7408203 C132.626302,32.2935547 133.572591,30.5617839 133.770508,28.5455078 L133.770508,28.5455078 L126.626953,28.5455078 L126.626953,24.4820312 L138.464844,24.4820312 L138.464844,25.4283203 L138.459561,25.9612522 C138.420819,27.8964374 138.169,29.6237413 137.704102,31.1431641 C137.20931,32.6770182 136.374349,34.1119141 135.199219,35.4478516 C132.539714,38.4413411 129.156576,39.9380859 125.049805,39.9380859 C121.041992,39.9380859 117.609375,38.4908203 114.751953,35.5962891 C111.894531,32.689388 110.46582,29.2011068 110.46582,25.1314453 C110.46582,20.9751953 111.919271,17.4498047 114.826172,14.5552734 C117.733073,11.6483724 121.270833,10.1949219 125.439453,10.1949219 Z M93.4326172,10.1949219 C95.6715495,10.1949219 97.7620443,10.6526042 99.7041016,11.5679687 C101.55957,12.4833333 103.384115,13.9677083 105.177734,16.0210937 L105.177734,16.0210937 L102.097656,18.9712891 L101.860919,18.6635493 C99.5559183,15.7391518 96.771224,14.2769531 93.5068359,14.2769531 C90.476237,14.2769531 87.9342448,15.3222005 85.8808594,17.4126953 C83.827474,19.4660807 82.8007812,22.0389974 82.8007812,25.1314453 C82.8007812,28.3228516 83.944987,30.9514323 86.2333984,33.0171875 C88.3733724,34.9345052 90.6927083,35.8931641 93.1914062,35.8931641 C95.3190104,35.8931641 97.2301432,35.1757161 98.9248047,33.7408203 C100.619466,32.2935547 101.565755,30.5617839 101.763672,28.5455078 L101.763672,28.5455078 L94.6201172,28.5455078 L94.6201172,24.4820312 L106.458008,24.4820312 L106.458008,25.4283203 L106.452725,25.9612522 C106.413983,27.8964374 106.162164,29.6237413 105.697266,31.1431641 C105.202474,32.6770182 104.367513,34.1119141 103.192383,35.4478516 C100.532878,38.4413411 97.1497396,39.9380859 93.0429688,39.9380859 C89.0351562,39.9380859 85.6025391,38.4908203 82.7451172,35.5962891 C79.8876953,32.689388 78.4589844,29.2011068 78.4589844,25.1314453 C78.4589844,20.9751953 79.9124349,17.4498047 82.8193359,14.5552734 C85.726237,11.6483724 89.2639974,10.1949219 93.4326172,10.1949219 Z M320.022461,10.1949219 C322.595378,10.1949219 325.081706,10.8938151 327.481445,12.2916016 L327.481445,12.2916016 L327.481445,17.4126953 L327.155037,17.1459498 C324.757776,15.2332853 322.281292,14.2769531 319.725586,14.2769531 C316.781576,14.2769531 314.301432,15.3345703 312.285156,17.4498047 C310.25651,19.5526693 309.242188,22.1255859 309.242188,25.1685547 C309.242188,28.1744141 310.25651,30.7102214 312.285156,32.7759766 C314.313802,34.8417318 316.80013,35.8746094 319.744141,35.8746094 C321.265625,35.8746094 322.558268,35.6272135 323.62207,35.1324219 C324.21582,34.885026 324.831217,34.5510417 325.468262,34.1304687 C326.105306,33.7098958 326.776367,33.2027344 327.481445,32.6089844 L327.481445,32.6089844 L327.481445,37.8228516 L327.067974,38.0493447 C324.718477,39.2961357 322.258644,39.9195312 319.688477,39.9195312 C315.594076,39.9195312 312.099609,38.4908203 309.205078,35.6333984 C306.322917,32.751237 304.881836,29.2753255 304.881836,25.2056641 C304.881836,21.5565755 306.087891,18.3033203 308.5,15.4458984 C311.46875,11.9452474 315.30957,10.1949219 320.022461,10.1949219 Z M246.026367,21.3277344 L246.026367,31.6998047 L246.029621,31.9678168 C246.099047,34.7826317 247.279277,36.1900391 249.570312,36.1900391 C251.932943,36.1900391 253.114258,34.6932943 253.114258,31.6998047 L253.114258,31.6998047 L253.114258,21.3277344 L257.289062,21.3277344 L257.289062,31.7925781 L257.283682,32.2208203 C257.251396,33.4877344 257.073828,34.5943359 256.750977,35.540625 C256.404622,36.4807292 255.804688,37.3280599 254.951172,38.0826172 C253.541016,39.3072266 251.747396,39.9195312 249.570312,39.9195312 C247.405599,39.9195312 245.618164,39.3072266 244.208008,38.0826172 C243.342122,37.3280599 242.729818,36.4807292 242.371094,35.540625 C242.02474,34.6994792 241.851562,33.4501302 241.851562,31.7925781 L241.851562,31.7925781 L241.851562,21.3277344 L246.026367,21.3277344 Z M392.589844,20.8267578 C395.249349,20.8267578 397.352214,21.6740885 398.898438,23.36875 C400.432292,25.0510417 401.199219,27.3827474 401.199219,30.3638672 L401.199219,30.3638672 L401.180664,31.3472656 L388.229492,31.3472656 L388.256706,31.6400998 C388.406793,32.9878024 388.880143,34.0715061 389.676758,34.8912109 C390.530273,35.7570964 391.625,36.1900391 392.960938,36.1900391 C394,36.1900391 394.859701,35.9426432 395.540039,35.4478516 C396.208008,34.9530599 396.96875,34.0376953 397.822266,32.7017578 L397.822266,32.7017578 L401.347656,34.6685547 L401.112504,35.0580138 C400.638413,35.8206493 400.141602,36.4855887 399.62207,37.052832 C399.015951,37.7146159 398.366536,38.2588867 397.673828,38.6856445 C396.98112,39.1124023 396.232747,39.4247396 395.428711,39.6226562 C394.624674,39.8205729 393.752604,39.9195312 392.8125,39.9195312 C390.115885,39.9195312 387.951172,39.0536458 386.318359,37.321875 C384.685547,35.5777344 383.869141,33.2645833 383.869141,30.3824219 C383.869141,27.525 384.660807,25.211849 386.244141,23.4429687 C387.839844,21.6988281 389.955078,20.8267578 392.589844,20.8267578 Z M340.005859,20.8267578 C342.665365,20.8267578 344.768229,21.6740885 346.314453,23.36875 C347.848307,25.0510417 348.615234,27.3827474 348.615234,30.3638672 L348.615234,30.3638672 L348.59668,31.3472656 L335.645508,31.3472656 L335.672721,31.6400998 C335.822808,32.9878024 336.296159,34.0715061 337.092773,34.8912109 C337.946289,35.7570964 339.041016,36.1900391 340.376953,36.1900391 C341.416016,36.1900391 342.275716,35.9426432 342.956055,35.4478516 C343.624023,34.9530599 344.384766,34.0376953 345.238281,32.7017578 L345.238281,32.7017578 L348.763672,34.6685547 L348.52852,35.0580138 C348.054428,35.8206493 347.557617,36.4855887 347.038086,37.052832 C346.431966,37.7146159 345.782552,38.2588867 345.089844,38.6856445 C344.397135,39.1124023 343.648763,39.4247396 342.844727,39.6226562 C342.04069,39.8205729 341.16862,39.9195312 340.228516,39.9195312 C337.531901,39.9195312 335.367188,39.0536458 333.734375,37.321875 C332.101562,35.5777344 331.285156,33.2645833 331.285156,30.3824219 C331.285156,27.525 332.076823,25.211849 333.660156,23.4429687 C335.255859,21.6988281 337.371094,20.8267578 340.005859,20.8267578 Z M227.787109,20.8267578 C230.483724,20.8267578 232.772135,21.7483073 234.652344,23.5914062 C236.507812,25.4345052 237.435547,27.6981771 237.435547,30.3824219 C237.435547,33.0914062 236.501628,35.361263 234.633789,37.1919922 C232.753581,39.0103516 230.446615,39.9195312 227.712891,39.9195312 C225.003906,39.9195312 222.734049,38.9917969 220.90332,37.1363281 C219.072591,35.305599 218.157227,33.0048177 218.157227,30.2339844 C218.157227,27.6239583 219.091146,25.4035807 220.958984,23.5728516 C222.826823,21.7421224 225.102865,20.8267578 227.787109,20.8267578 Z M191.80957,20.8267578 C193.59082,20.8267578 195.273112,21.2535156 196.856445,22.1070312 L196.856445,22.1070312 L196.856445,27.6548828 L196.6384,27.3930312 C195.773247,26.3715352 194.992413,25.6609675 194.295898,25.2613281 C193.553711,24.8160156 192.681641,24.5933594 191.679688,24.5933594 C190.108724,24.5933594 188.803711,25.1438151 187.764648,26.2447266 C186.725586,27.345638 186.206055,28.7248698 186.206055,30.3824219 C186.206055,32.0770833 186.707031,33.4686849 187.708984,34.5572266 C188.723307,35.6457682 190.015951,36.1900391 191.586914,36.1900391 C192.588867,36.1900391 193.473307,35.9735677 194.240234,35.540625 C194.982422,35.1200521 195.854492,34.3036458 196.856445,33.0914062 L196.856445,33.0914062 L196.856445,38.6021484 L196.493304,38.7836246 C194.919689,39.5408957 193.346075,39.9195312 191.772461,39.9195312 C188.976888,39.9195312 186.638997,39.0165365 184.758789,37.2105469 C182.878581,35.3921875 181.938477,33.1347005 181.938477,30.4380859 C181.938477,27.7414714 182.890951,25.4654297 184.795898,23.6099609 C186.700846,21.7544922 189.038737,20.8267578 191.80957,20.8267578 Z M209.918945,20.8267578 C211.700195,20.8267578 213.382487,21.2535156 214.96582,22.1070312 L214.96582,22.1070312 L214.96582,27.6548828 L214.747775,27.3930312 C213.882622,26.3715352 213.101788,25.6609675 212.405273,25.2613281 C211.663086,24.8160156 210.791016,24.5933594 209.789062,24.5933594 C208.218099,24.5933594 206.913086,25.1438151 205.874023,26.2447266 C204.834961,27.345638 204.31543,28.7248698 204.31543,30.3824219 C204.31543,32.0770833 204.816406,33.4686849 205.818359,34.5572266 C206.832682,35.6457682 208.125326,36.1900391 209.696289,36.1900391 C210.698242,36.1900391 211.582682,35.9735677 212.349609,35.540625 C213.091797,35.1200521 213.963867,34.3036458 214.96582,33.0914062 L214.96582,33.0914062 L214.96582,38.6021484 L214.602679,38.7836246 C213.029064,39.5408957 211.45545,39.9195312 209.881836,39.9195312 C207.086263,39.9195312 204.748372,39.0165365 202.868164,37.2105469 C200.987956,35.3921875 200.047852,33.1347005 200.047852,30.4380859 C200.047852,27.7414714 201.000326,25.4654297 202.905273,23.6099609 C204.810221,21.7544922 207.148112,20.8267578 209.918945,20.8267578 Z M30.2485714,8.20738095 L44.4621429,39.8552381 L39.5442857,39.8552381 L36.42,32.6230952 L23.6721429,32.6230952 L20.355,39.8552381 L15.5142857,39.8552381 L30.2485714,8.20738095 Z M287.700195,14.7037109 L287.700195,21.3277344 L290.947266,21.3277344 L290.947266,25.2242187 L287.700195,25.2242187 L287.700195,39.4 L283.525391,39.4 L283.525391,25.2242187 L281.744141,25.2242187 L281.744141,21.3277344 L283.525391,21.3277344 L283.525391,14.7037109 L287.700195,14.7037109 Z M414.113281,20.8267578 C415.214193,20.8267578 416.364583,21.1854818 417.564453,21.9029297 L417.564453,21.9029297 L415.65332,25.7251953 L415.416377,25.5630273 C414.707217,25.1021289 414.013086,24.8716797 413.333984,24.8716797 C411.057943,24.8716797 409.919922,26.5910807 409.919922,30.0298828 L409.919922,30.0298828 L409.919922,39.4 L405.745117,39.4 L405.745117,21.3277344 L409.919922,21.3277344 L409.919922,22.9419922 L410.147402,22.7083887 C410.822051,22.0304004 411.426562,21.5578125 411.960938,21.290625 C412.567057,20.9813802 413.284505,20.8267578 414.113281,20.8267578 Z M271.6875,20.8267578 C273.790365,20.8267578 275.429362,21.4885417 276.604492,22.8121094 C277.618815,23.9377604 278.125977,25.7746745 278.125977,28.3228516 L278.125977,28.3228516 L278.125977,39.4 L273.932617,39.4 L273.932617,29.30625 L273.929718,28.9787163 C273.900726,27.3733009 273.654297,26.2516846 273.19043,25.6138672 C272.708008,24.9211589 271.829753,24.5748047 270.555664,24.5748047 C269.170247,24.5748047 268.186849,25.032487 267.605469,25.9478516 C267.036458,26.8508464 266.751953,28.4279948 266.751953,30.6792969 L266.751953,30.6792969 L266.751953,39.4 L262.558594,39.4 L262.558594,21.3277344 L266.751953,21.3277344 L266.751953,22.9976562 L266.996944,22.7631456 C268.394959,21.4722204 269.958478,20.8267578 271.6875,20.8267578 Z M73.0039062,10.7515625 L73.0039062,39.4 L68.6806641,39.4 L68.6806641,10.7515625 L73.0039062,10.7515625 Z M362.290039,20.8267578 C364.392904,20.8267578 366.031901,21.4885417 367.207031,22.8121094 C368.221354,23.9377604 368.728516,25.7746745 368.728516,28.3228516 L368.728516,28.3228516 L368.728516,39.4 L364.535156,39.4 L364.535156,29.30625 L364.532257,28.9787163 C364.503265,27.3733009 364.256836,26.2516846 363.792969,25.6138672 C363.310547,24.9211589 362.432292,24.5748047 361.158203,24.5748047 C359.772786,24.5748047 358.789388,25.032487 358.208008,25.9478516 C357.638997,26.8508464 357.354492,28.4279948 357.354492,30.6792969 L357.354492,30.6792969 L357.354492,39.4 L353.161133,39.4 L353.161133,21.3277344 L357.354492,21.3277344 L357.354492,22.9976562 L357.599483,22.7631456 C358.997498,21.4722204 360.561017,20.8267578 362.290039,20.8267578 Z M378.302734,14.7037109 L378.302734,21.3277344 L381.549805,21.3277344 L381.549805,25.2242187 L378.302734,25.2242187 L378.302734,39.4 L374.12793,39.4 L374.12793,25.2242187 L372.34668,25.2242187 L372.34668,21.3277344 L374.12793,21.3277344 L374.12793,14.7037109 L378.302734,14.7037109 Z M166.519531,8.95175781 L180.194336,39.4 L175.462891,39.4 L172.457031,32.4419922 L160.192383,32.4419922 L157.000977,39.4 L152.34375,39.4 L166.519531,8.95175781 Z M53.0576172,10.7515625 L53.5006828,10.7535194 C55.6815834,10.7730888 57.3460693,10.9394287 58.4941406,11.2525391 C59.7311198,11.5865234 60.8196615,12.2173828 61.7597656,13.1451172 C63.4049479,14.7531901 64.2275391,16.7818359 64.2275391,19.2310547 C64.2275391,21.8534505 63.3492839,23.9315755 61.5927734,25.4654297 C59.836263,26.9992839 57.4674479,27.7662109 54.4863281,27.7662109 L54.4863281,27.7662109 L52.4824219,27.7662109 L52.4824219,39.4 L48.1591797,39.4 L48.1591797,10.7515625 L53.0576172,10.7515625 Z M227.787109,24.5933594 C226.191406,24.5933594 224.898763,25.1252604 223.90918,26.1890625 C222.919596,27.2528646 222.424805,28.6259115 222.424805,30.3082031 C222.424805,32.1141927 222.907227,33.5429036 223.87207,34.5943359 C224.861654,35.658138 226.166667,36.1900391 227.787109,36.1900391 C229.419922,36.1900391 230.724935,35.6643229 231.702148,34.6128906 C232.679362,33.5614583 233.167969,32.157487 233.167969,30.4009766 C233.167969,28.6444661 232.679362,27.2404948 231.702148,26.1890625 C230.712565,25.1252604 229.407552,24.5933594 227.787109,24.5933594 Z M30.1714286,18.2745238 L25.5428571,28.3995238 L34.5878571,28.3995238 L30.1714286,18.2745238 Z M166.445312,18.6373047 L161.992188,28.3785156 L170.694336,28.3785156 L166.445312,18.6373047 Z M340.098633,24.5933594 C339.591471,24.5933594 339.115234,24.6706706 338.669922,24.825293 C338.224609,24.9799154 337.819499,25.2025716 337.45459,25.4932617 C337.089681,25.7839518 336.777344,26.1333984 336.517578,26.5416016 C336.257812,26.9498047 336.059896,27.4136719 335.923828,27.9332031 L335.923828,27.9332031 L344.310547,27.9332031 C343.729167,25.7066406 342.325195,24.5933594 340.098633,24.5933594 Z M392.682617,24.5933594 C392.175456,24.5933594 391.699219,24.6706706 391.253906,24.825293 C390.808594,24.9799154 390.403483,25.2025716 390.038574,25.4932617 C389.673665,25.7839518 389.361328,26.1333984 389.101562,26.5416016 C388.841797,26.9498047 388.64388,27.4136719 388.507812,27.9332031 L388.507812,27.9332031 L396.894531,27.9332031 C396.313151,25.7066406 394.90918,24.5933594 392.682617,24.5933594 Z M53.9111328,14.7408203 L52.4824219,14.7408203 L52.4824219,23.7583984 L54.0966797,23.7583984 C58.0673828,23.7583984 60.0527344,22.2307292 60.0527344,19.1753906 C60.0527344,16.2190104 58.0055339,14.7408203 53.9111328,14.7408203 L53.9111328,14.7408203 Z"></path>
</svg>
