<svg
    xmlns="http://www.w3.org/2000/svg"
    viewBox="0 0 1024 1024">
    <path
        d="M673.742464 163.486102c38.39204-43.335015 64.322663-103.54653 57.268126-163.502099-55.332527 2.079569-122.326636 34.232902-162.062398 77.519927-35.59262 38.408036-66.706169 99.59535-58.387893 158.463144 61.747197 4.479071 124.742135-29.22594 163.182165-72.480972z m138.531276 380.62508c-1.375715-129.717104 113.640437-191.912208 118.807366-195.047558-64.642597-87.965761-165.357714-100.043257-201.174288-101.418972-85.646242-8.094322-167.181336 46.950265-210.660321 46.950266-43.367008 0-110.473094-45.766511-181.498367-44.598753-93.42063 1.295731-179.514779 50.565516-227.600808 128.421372-97.019884 156.655518-24.826852 388.831378 69.729542 515.989013 46.230414 62.163111 101.338988 132.084613 173.643996 129.525144 69.697549-2.559469 96.012092-41.943303 180.234629-41.943303 84.286524 0 107.913625 41.943303 181.626341 40.647572 74.944461-1.263738 122.45461-63.330869 168.317101-125.717933 53.076995-72.209028 74.912467-142.146527 76.224195-145.665797-1.679652-0.751844-146.145698-52.277161-147.649386-207.141051z"></path>
</svg>
